<svg height='100px' width='100px'  fill="#FFFFFF" xmlns="http://www.w3.org/2000/svg" xmlns:xlink="http://www.w3.org/1999/xlink" version="1.1" x="0px" y="0px" viewBox="0 0 100 100" enable-background="new 0 0 100 100" xml:space="preserve">
<style>
	path {
		color: black;
	}

	@media (prefers-color-scheme: dark) {
		path {
			color: white;
	}
}
</style>
<g><g><g><path d="M26.53,11.559L1.858,23.755l19.567-0.71L45.955,10L26.53,11.559z M24.179,17.851c-1.714,0.655-3.201,0.929-3.322,0.613     c-0.122-0.318,1.169-1.105,2.882-1.761c1.713-0.655,3.201-0.929,3.322-0.612C27.183,16.408,25.892,17.196,24.179,17.851z"></path></g><g><path d="M20.576,24.037L2.284,24.747l11.06,29.493l18.291,2.41L20.576,24.037z M9.602,34.523c-0.946,0.377-2.281-0.742-2.981-2.5     c-0.699-1.758-0.501-3.489,0.444-3.866c0.946-0.377,2.28,0.742,2.981,2.5C10.746,32.415,10.547,34.146,9.602,34.523z      M16.066,51.562c-0.953,0.358-2.267-0.785-2.935-2.556c-0.669-1.771-0.438-3.497,0.514-3.856c0.953-0.36,2.266,0.784,2.935,2.555     C17.249,49.474,17.019,51.201,16.066,51.562z M20.46,34.79c-1.063,0.406-2.527-0.84-3.268-2.784     c-0.739-1.944-0.478-3.848,0.586-4.252c1.065-0.407,2.528,0.84,3.268,2.783C21.788,32.48,21.525,34.385,20.46,34.79z      M26.575,53.223c-1.039,0.346-2.405-0.952-3.05-2.896c-0.646-1.943-0.327-3.801,0.711-4.146c1.039-0.346,2.406,0.952,3.051,2.896     C27.933,51.021,27.614,52.877,26.575,53.223z"></path></g><g><path d="M81.827,55.799L70.343,88.127l16.164-11.346L97,48L81.827,55.799z M77.253,79.153c-1.008,1.819-2.241,3.064-2.756,2.775     c-0.513-0.282-0.112-1.986,0.895-3.805c1.009-1.816,2.242-3.061,2.756-2.775S78.261,77.338,77.253,79.153z M85.334,67.231     c-0.967,1.745-2.169,2.932-2.683,2.646c-0.515-0.286-0.146-1.931,0.823-3.679c0.968-1.745,2.169-2.932,2.682-2.646     C86.67,63.839,86.303,65.483,85.334,67.231z M90.095,58.442c-0.513-0.284-0.145-1.933,0.823-3.679     c0.969-1.746,2.169-2.932,2.683-2.646c0.514,0.284,0.146,1.931-0.822,3.678C91.811,57.541,90.609,58.728,90.095,58.442z"></path></g><g><path d="M50.209,36.09l5.008-1.863L47.09,10.283L21.993,24.037l10.776,32.612l11.871-7.395l5.144-12.598L50.209,36.09z      M35.627,50.458c-1.736,0-3.143-1.756-3.143-3.923c0-2.166,1.407-3.923,3.143-3.923s3.144,1.757,3.144,3.923     C38.771,48.702,37.363,50.458,35.627,50.458z M44.467,23.328c-1.684,0-3.049-1.649-3.049-3.685c0-2.035,1.365-3.685,3.049-3.685     c1.684,0,3.048,1.65,3.048,3.685C47.515,21.679,46.15,23.328,44.467,23.328z"></path><path d="M51.484,38.642L38.865,69.551l30.628,18.576l11.483-32.896L51.484,38.642z M47.278,71.113     c-1.906,0-3.45-1.668-3.45-3.723c0-2.057,1.543-3.723,3.45-3.723s3.45,1.666,3.45,3.723     C50.729,69.445,49.185,71.113,47.278,71.113z M50.539,48.698c0-0.025,0.004-0.051,0.004-0.075     c0.035-2.163,1.628-3.907,3.588-3.907c0.66,0,1.277,0.201,1.809,0.546c1.066,0.691,1.784,1.969,1.784,3.437     c0,2.199-1.608,3.981-3.593,3.981C52.147,52.68,50.539,50.897,50.539,48.698z M55.881,63.064c0-2.197,1.607-3.981,3.592-3.981     s3.592,1.784,3.592,3.981c0,2.201-1.607,3.982-3.592,3.982S55.881,65.266,55.881,63.064z M65.285,81.652     c-2.062,0-3.733-1.783-3.733-3.981c0-2.199,1.671-3.982,3.733-3.982c2.063,0,3.734,1.783,3.734,3.982     C69.02,79.869,67.349,81.652,65.285,81.652z M72.233,62.699c-1.983,0-3.592-1.782-3.592-3.98c0-2.2,1.608-3.983,3.592-3.983     s3.592,1.783,3.592,3.983C75.825,60.917,74.217,62.699,72.233,62.699z"></path><path d="M68.499,31.907L51.91,38.074l29.917,16.589L97,47.007L68.499,31.907z M64.642,41.568     c-0.261,0.682-2.015,0.646-3.916-0.083c-1.104-0.423-2.014-0.986-2.531-1.518l-0.438-1.036c0.013-0.035,0.033-0.065,0.054-0.096     c0.387-0.581,2.056-0.514,3.861,0.178C63.573,39.741,64.902,40.885,64.642,41.568z M73.764,46.341     c-0.262,0.683-2.016,0.646-3.917-0.082s-3.229-1.872-2.968-2.554c0.261-0.683,2.015-0.646,3.915,0.082     C72.695,44.515,74.025,45.659,73.764,46.341z M74.33,37.74c-0.26,0.682-2.015,0.645-3.915-0.083     c-1.901-0.728-3.231-1.871-2.97-2.554c0.262-0.682,2.013-0.645,3.916,0.083C73.262,35.914,74.591,37.056,74.33,37.74z      M82.555,51.02c-0.262,0.683-2.015,0.647-3.916-0.081c-1.901-0.728-3.229-1.871-2.971-2.554c0.262-0.684,2.016-0.646,3.917,0.082     S82.816,50.337,82.555,51.02z M82.602,42.229c-0.262,0.682-2.013,0.646-3.916-0.083c-1.902-0.727-3.229-1.871-2.969-2.554     c0.26-0.682,2.014-0.646,3.915,0.083C81.533,40.404,82.863,41.546,82.602,42.229z M87.239,46.495     c-1.9-0.728-3.229-1.871-2.969-2.553c0.262-0.684,2.016-0.646,3.917,0.082c1.901,0.728,3.229,1.872,2.97,2.554     C90.895,47.26,89.141,47.224,87.239,46.495z"></path></g></g></g>
</svg>
